<svg data-v-cf965d7c="" width="120" viewBox="0 0 795 125" aria-hidden="true" style="--logo-fill-color: var(--white);"><g data-v-cf965d7c="">
<path data-v-cf965d7c="" d="M113.88 98.17H0L53.18 0h113.88z" stroke="none" class="tent"></path><path data-v-cf965d7c="" d="M166.76 0h15.21v36.44h.27c4.14-6.9 12.81-11.18 20.55-11.18 21.75 0 32.3 17.13 32.3 37.97 0 19.19-9.34 37.27-29.76 37.27-9.34 0-19.35-2.34-23.9-11.73h-.26v9.8h-14.41V0Zm34.03 37.69c-12.8 0-19.35 10.08-19.35 25.26 0 14.36 7.07 25.13 19.35 25.13 13.88 0 19.09-12.7 19.09-25.13-.01-12.97-6.55-25.26-19.1-25.26h.01ZM352.94 25.45c-9.07 0-16.95 4.83-21.49 12.7l-.26-.27v-10.5h-14.42v60.8c-8.67.1-9.48.1-10.14.1-2.8 0-3.6-1.53-3.6-5.4V46.17c0-15.04-14.15-20.71-27.63-20.71-15.22 0-30.3 5.38-31.36 23.75h15.2c.68-7.73 6.68-11.32 15.22-11.32 6.14 0 14.28 1.52 14.28 9.66 0 9.25-9.74 8-20.68 10.08-12.82 1.52-26.56 4.42-26.56 22.22 0 13.95 11.2 20.85 23.62 20.85 8.14 0 17.88-2.62 23.9-8.69 1.19 6.49 5.6 8.7 11.73 8.7 2.54 0 7.34-.97 31.14-1.8v-.14h.1v-42.1c0-10.5 6.54-18.78 16.68-18.78 8.94 0 13.21 4.83 13.48 16.01v44.87h15.22v-49c.03-16.02-9.45-24.3-24.4-24.3l-.03-.01Zm-65.1 49.3c0 9.93-10.41 13.52-17.08 13.52-5.34 0-14.02-2.07-14.02-9.11 0-8.29 5.87-10.77 12.41-11.88 6.68-1.24 14.02-1.1 18.69-4.27v11.73ZM455.71 98.57H441.3v-9.66h-.27c-4 8.14-12.68 11.6-21.35 11.6-21.75 0-32.3-16.72-32.3-38.11 0-25.82 14.81-37.14 29.9-37.14 8.67 0 18.28 3.32 22.95 11.18h.27V0h15.21v98.57Zm-34.03-10.49c13.61 0 19.35-12.84 19.35-25.27 0-15.73-7.34-25.13-19.08-25.13-14.29 0-19.36 13.12-19.36 25.96 0 12.29 5.87 24.44 19.1 24.44h-.01ZM516.17 51.27c-1.2-8.7-7.34-13.4-15.75-13.4-7.88 0-18.95 4.29-18.95 25.96 0 11.88 5.07 24.44 18.28 24.44 8.81 0 14.95-6.08 16.42-16.3h15.21c-2.8 18.5-13.88 28.72-31.63 28.72-21.62 0-33.5-15.87-33.5-36.86 0-21.53 11.35-38.38 34.04-38.38 16.01 0 29.63 8.29 31.1 25.82H516.16ZM689.68 25.45c-10 0-16.55 4.56-21.62 11.87-3.07-8.14-10.94-11.87-19.35-11.87-10.95 0-16.69 4.83-21.22 11.87h-.4V27.4h-14.42v60.78c-8.68.1-9.49.1-10.15.1-2.8 0-3.6-1.52-3.6-5.38V46.16c0-15.04-14.15-20.71-27.63-20.71-15.21 0-30.3 5.38-31.37 23.75h15.22c.67-7.73 6.68-11.33 15.22-11.33 6.13 0 14.28 1.53 14.28 9.67 0 9.25-9.75 8-20.7 10.08-12.8 1.52-26.55 4.42-26.55 22.22 0 13.95 11.21 20.85 23.62 20.85 8.14 0 17.89-2.62 23.9-8.69 1.2 6.49 5.6 8.7 11.74 8.7 2.53 0 7.34-.97 30.92-1.8v-.14h.31V56.38c0-11.87 7.21-18.5 15.09-18.5 9.2 0 12.14 5.24 12.14 15.05v45.83h15.21V56.93c0-12.01 4.4-19.05 14.68-19.05 11.88 0 12.55 7.87 12.55 19.2v41.68h15.21V49.48c.01-17.4-8.53-24.03-23.07-24.03h-.01Zm-105.97 49.3c0 9.93-10.4 13.52-17.08 13.52-5.34 0-14.01-2.08-14.01-9.11 0-8.29 5.87-10.77 12.4-11.88 6.68-1.24 14.02-1.1 18.7-4.27v11.73ZM726.52 27.39h14.41v9.66h.27c4.27-8.14 12.54-11.6 21.35-11.6 21.76 0 32.3 17.12 32.3 37.97 0 19.19-9.35 37.27-29.76 37.27-8.8 0-18.29-3.31-23.09-11.17h-.27v35.6h-15.21V27.4Zm34.03 10.48c-12.81 0-19.35 10.09-19.35 25.27 0 14.35 7.07 25.13 19.35 25.13 13.88 0 19.09-12.7 19.09-25.13 0-12.97-6.55-25.27-19.1-25.27h.01Z" stroke="none"></path></g>
</svg>